<?xml version="1.0" encoding="UTF-8"?>
<svg height="128px" viewBox="0 0 128 128" width="128px" xmlns="http://www.w3.org/2000/svg" xmlns:xlink="http://www.w3.org/1999/xlink">
    <linearGradient id="a" gradientUnits="userSpaceOnUse" x1="8.0000515" x2="120.0000515" y1="116.000069" y2="116.000069">
        <stop offset="0" stop-color="#ff7800"/>
        <stop offset="0.0357143" stop-color="#ffbe6f"/>
        <stop offset="0.0713653" stop-color="#ff7800"/>
        <stop offset="0.928571" stop-color="#ff7800"/>
        <stop offset="0.964286" stop-color="#ffbe6f"/>
        <stop offset="1" stop-color="#ff7800"/>
    </linearGradient>
    <symbol id="b" overflow="visible">
        <path d="m 19.515625 0.640625 c 9.921875 0 16.0625 -8.703125 16.0625 -23.171875 c 0 -13.953125 -5.953125 -22.53125 -15.609375 -22.53125 c -10.046875 0 -16.25 8.78125 -16.25 23.171875 c 0 14.015625 6.015625 22.53125 15.796875 22.53125 z m 0.390625 -4.546875 c -6.65625 0 -10.8125 -6.96875 -10.8125 -18.625 c 0 -11.203125 4.03125 -17.984375 10.484375 -17.984375 c 6.53125 0 10.625 7.046875 10.625 18.625 c 0 11.203125 -3.90625 17.984375 -10.296875 17.984375 z m 0 0"/>
    </symbol>
    <path d="m 16 40 h 96 c 4.417969 0 8 3.582031 8 8 v 60 c 0 4.417969 -3.582031 8 -8 8 h -96 c -4.417969 0 -8 -3.582031 -8 -8 v -60 c 0 -4.417969 3.582031 -8 8 -8 z m 0 0" fill="url(#a)"/>
    <path d="m 16 28 h 96 c 4.417969 0 8 3.582031 8 8 v 64 c 0 4.417969 -3.582031 8 -8 8 h -96 c -4.417969 0 -8 -3.582031 -8 -8 v -64 c 0 -4.417969 3.582031 -8 8 -8 z m 0 0" fill="#ffbe6f"/>
    <path d="m 64 28 v 80" fill="none" stroke="#ffa348" stroke-width="4"/>
    <path d="m 16 32 h 38 c 2.210938 0 4 1.789062 4 4 v 64 c 0 2.210938 -1.789062 4 -4 4 h -38 c -2.210938 0 -4 -1.789062 -4 -4 v -64 c 0 -2.210938 1.789062 -4 4 -4 z m 0 0" fill="#241f31"/>
    <use fill="#57e389" x="14.851562" xlink:href="#b" y="90.490234"/>
    <path d="m 74 32 h 38 c 2.210938 0 4 1.789062 4 4 v 64 c 0 2.210938 -1.789062 4 -4 4 h -38 c -2.210938 0 -4 -1.789062 -4 -4 v -64 c 0 -2.210938 1.789062 -4 4 -4 z m 0 0" fill="#241f31"/>
    <g fill="#57e389">
        <path d="m 85.5 32 l 0.480469 0.648438 c 0.640625 -0.214844 1.28125 -0.433594 1.921875 -0.648438 z m 12.386719 0 c -0.003907 1.574219 -0.015625 3.144531 -0.003907 4.714844 v 19.285156 h 5.054688 v -24 z m 0 0"/>
        <path d="m 93.5625 74.273438 c -5.75 -0.023438 -11.082031 3.808593 -13.296875 9.089843 c -2.808594 6.433594 -3.296875 13.726563 -2.164063 20.636719 h 5.492188 c -1.140625 -6.578125 -1.035156 -13.648438 1.839844 -19.761719 c 1.890625 -4.445312 7.59375 -6.914062 11.921875 -4.40625 c 5.351562 3.316407 6.394531 10.246094 6.675781 16.042969 c 0.039062 2.625 -0.023438 5.429688 -0.472656 8.125 h 5.285156 c 1.105469 -5.984375 0.730469 -12.265625 -0.925781 -18.085938 c -1.644531 -5.980468 -6.691407 -11.441406 -13.203125 -11.585937 c -0.386719 -0.035156 -0.769532 -0.054687 -1.152344 -0.054687 z m 0 0"/>
    </g>
</svg>
