<?xml version="1.0" encoding="UTF-8"?>
<svg height="128px" viewBox="0 0 128 128" width="128px" xmlns="http://www.w3.org/2000/svg" xmlns:xlink="http://www.w3.org/1999/xlink">
    <linearGradient id="a" gradientUnits="userSpaceOnUse" x1="8.0000515" x2="120.0000515" y1="116.000069" y2="116.000069">
        <stop offset="0" stop-color="#ff7800"/>
        <stop offset="0.0357143" stop-color="#ffbe6f"/>
        <stop offset="0.0713653" stop-color="#ff7800"/>
        <stop offset="0.928571" stop-color="#ff7800"/>
        <stop offset="0.964286" stop-color="#ffbe6f"/>
        <stop offset="1" stop-color="#ff7800"/>
    </linearGradient>
    <linearGradient id="b" gradientUnits="userSpaceOnUse">
        <stop offset="0" stop-color="#241f31" stop-opacity="0"/>
        <stop offset="0.25" stop-color="#3d3846" stop-opacity="0.301961"/>
        <stop offset="0.5" stop-color="#5e5c64" stop-opacity="0.301961"/>
        <stop offset="0.75" stop-color="#3d3846" stop-opacity="0.301961"/>
        <stop offset="1" stop-color="#241f31" stop-opacity="0"/>
    </linearGradient>
    <linearGradient id="c" x1="35" x2="35" xlink:href="#b" y1="32" y2="104"/>
    <linearGradient id="d" x1="93.223068" x2="93.232422" xlink:href="#b" y1="32.000092" y2="104"/>
    <linearGradient id="e" gradientUnits="userSpaceOnUse">
        <stop offset="0" stop-color="#241f31"/>
        <stop offset="0.15" stop-color="#241f31" stop-opacity="0"/>
        <stop offset="0.85" stop-color="#241f31" stop-opacity="0"/>
        <stop offset="1" stop-color="#241f31"/>
    </linearGradient>
    <linearGradient id="f" x1="34.999998" x2="34.999998" xlink:href="#e" y1="32" y2="104"/>
    <linearGradient id="g" x1="93.223066" x2="93.23242" xlink:href="#e" y1="32.000092" y2="104"/>
    <clipPath id="h">
        <rect height="128" width="128"/>
    </clipPath>
    <clipPath id="i">
        <rect height="128" width="128"/>
    </clipPath>
    <filter id="j" height="100%" width="100%" x="0%" y="0%">
        <feColorMatrix in="SourceGraphic" type="matrix" values="0 0 0 0 1 0 0 0 0 1 0 0 0 0 1 0 0 0 1 0"/>
    </filter>
    <mask id="k">
        <g clip-path="url(#i)" filter="url(#j)">
            <g clip-path="url(#h)">
                <path d="m 16 40 h 96 c 4.417969 0 8 3.582031 8 8 v 60 c 0 4.417969 -3.582031 8 -8 8 h -96 c -4.417969 0 -8 -3.582031 -8 -8 v -60 c 0 -4.417969 3.582031 -8 8 -8 z m 0 0" fill="url(#a)"/>
                <path d="m 16 28 h 96 c 4.417969 0 8 3.582031 8 8 v 64 c 0 4.417969 -3.582031 8 -8 8 h -96 c -4.417969 0 -8 -3.582031 -8 -8 v -64 c 0 -4.417969 3.582031 -8 8 -8 z m 0 0" fill="#ffbe6f"/>
                <path d="m 64 200 v 80" fill="none" stroke="#ffa348" stroke-width="4" transform="matrix(1 0 0 1 0 -172)"/>
                <path d="m 16 32 h 38 c 2.210938 0 4 1.789062 4 4 v 64 c 0 2.210938 -1.789062 4 -4 4 h -38 c -2.210938 0 -4 -1.789062 -4 -4 v -64 c 0 -2.210938 1.789062 -4 4 -4 z m 0 0" fill="#241f31"/>
                <path d="m 16 32 h 38 c 2.210938 0 4 1.789062 4 4 v 64 c 0 2.210938 -1.789062 4 -4 4 h -38 c -2.210938 0 -4 -1.789062 -4 -4 v -64 c 0 -2.210938 1.789062 -4 4 -4 z m 0 0" fill="url(#c)"/>
                <path d="m 74.222656 32 h 38 c 2.210938 0 4 1.789062 4 4 v 64 c 0 2.210938 -1.789062 4 -4 4 h -38 c -2.207031 0 -4 -1.789062 -4 -4 v -64 c 0 -2.210938 1.792969 -4 4 -4 z m 0 0" fill="#241f31"/>
                <path d="m 34.902344 85.136719 c 7.441406 0 12.050781 -6.527344 12.050781 -17.375 c 0 -10.464844 -4.464844 -16.898438 -11.714844 -16.898438 c -7.535156 0 -12.191406 6.578125 -12.191406 17.375 c 0 10.515625 4.511719 16.898438 11.855469 16.898438 z m 0.289062 -3.410157 c -4.992187 0 -8.113281 -5.230468 -8.113281 -13.964843 c 0 -8.402344 3.027344 -13.488281 7.875 -13.488281 c 4.894531 0 7.96875 5.277343 7.96875 13.964843 c 0 8.402344 -2.929687 13.488281 -7.730469 13.488281 z m 0 0" fill="#57e389"/>
                <path d="m 74.222656 32 h 38 c 2.210938 0 4 1.789062 4 4 v 64 c 0 2.210938 -1.789062 4 -4 4 h -38 c -2.207031 0 -4 -1.789062 -4 -4 v -64 c 0 -2.210938 1.792969 -4 4 -4 z m 0 0" fill="url(#d)"/>
                <path d="m 96.511719 68 h 3.792969 v -33.550781 h -2.304688 l -11.855469 6.144531 l 1.4375 2.734375 l 10.175781 -4.847656 l -1.246093 -1.199219 z m 0 0" fill="#57e389"/>
                <path d="m 93.464844 88 c -7.210938 0 -11.78125 6.019531 -12.164063 16 h 4.023438 c 0.207031 -7.859375 3.179687 -12.59375 7.851562 -12.59375 c 4.632813 0 7.625 4.730469 7.933594 12.59375 h 4.054687 c -0.25 -9.933594 -4.664062 -16 -11.699218 -16 z m 0 0" fill="#57e389"/>
                <path d="m 16 32 h 38 c 2.210938 0 4 1.789062 4 4 v 64 c 0 2.210938 -1.789062 4 -4 4 h -38 c -2.210938 0 -4 -1.789062 -4 -4 v -64 c 0 -2.210938 1.789062 -4 4 -4 z m 0 0" fill="url(#f)"/>
                <path d="m 74.222656 32 h 38 c 2.210938 0 4 1.789062 4 4 v 64 c 0 2.210938 -1.789062 4 -4 4 h -38 c -2.207031 0 -4 -1.789062 -4 -4 v -64 c 0 -2.210938 1.792969 -4 4 -4 z m 0 0" fill="url(#g)"/>
            </g>
        </g>
    </mask>
    <mask id="l">
        <g filter="url(#j)">
            <rect fill-opacity="0.8" height="128" width="128"/>
        </g>
    </mask>
    <linearGradient id="m" gradientTransform="matrix(0 0.37 -0.98462 0 295.38501 -30.360001)" gradientUnits="userSpaceOnUse" x1="300" x2="428" y1="235" y2="235">
        <stop offset="0" stop-color="#f9f06b"/>
        <stop offset="1" stop-color="#f5c211"/>
    </linearGradient>
    <clipPath id="n">
        <rect height="128" width="128"/>
    </clipPath>
    <clipPath id="o">
        <rect height="128" width="128"/>
    </clipPath>
    <path d="m 16 40 h 96 c 4.417969 0 8 3.582031 8 8 v 60 c 0 4.417969 -3.582031 8 -8 8 h -96 c -4.417969 0 -8 -3.582031 -8 -8 v -60 c 0 -4.417969 3.582031 -8 8 -8 z m 0 0" fill="url(#a)"/>
    <path d="m 16 28 h 96 c 4.417969 0 8 3.582031 8 8 v 64 c 0 4.417969 -3.582031 8 -8 8 h -96 c -4.417969 0 -8 -3.582031 -8 -8 v -64 c 0 -4.417969 3.582031 -8 8 -8 z m 0 0" fill="#ffbe6f"/>
    <path d="m 64 28 v 80" fill="none" stroke="#ffa348" stroke-width="4"/>
    <path d="m 16 32 h 38 c 2.210938 0 4 1.789062 4 4 v 64 c 0 2.210938 -1.789062 4 -4 4 h -38 c -2.210938 0 -4 -1.789062 -4 -4 v -64 c 0 -2.210938 1.789062 -4 4 -4 z m 0 0" fill="#241f31"/>
    <path d="m 16 32 h 38 c 2.210938 0 4 1.789062 4 4 v 64 c 0 2.210938 -1.789062 4 -4 4 h -38 c -2.210938 0 -4 -1.789062 -4 -4 v -64 c 0 -2.210938 1.789062 -4 4 -4 z m 0 0" fill="url(#c)"/>
    <path d="m 74.222656 32 h 38 c 2.210938 0 4 1.789062 4 4 v 64 c 0 2.210938 -1.789062 4 -4 4 h -38 c -2.207031 0 -4 -1.789062 -4 -4 v -64 c 0 -2.210938 1.792969 -4 4 -4 z m 0 0" fill="#241f31"/>
    <path d="m 34.902344 85.136719 c 7.441406 0 12.050781 -6.527344 12.050781 -17.375 c 0 -10.464844 -4.464844 -16.898438 -11.714844 -16.898438 c -7.535156 0 -12.191406 6.578125 -12.191406 17.375 c 0 10.515625 4.511719 16.898438 11.855469 16.898438 z m 0.289062 -3.410157 c -4.992187 0 -8.113281 -5.230468 -8.113281 -13.964843 c 0 -8.402344 3.027344 -13.488281 7.875 -13.488281 c 4.894531 0 7.96875 5.277343 7.96875 13.964843 c 0 8.402344 -2.929687 13.488281 -7.730469 13.488281 z m 0 0" fill="#57e389"/>
    <path d="m 74.222656 32 h 38 c 2.210938 0 4 1.789062 4 4 v 64 c 0 2.210938 -1.789062 4 -4 4 h -38 c -2.207031 0 -4 -1.789062 -4 -4 v -64 c 0 -2.210938 1.792969 -4 4 -4 z m 0 0" fill="url(#d)"/>
    <path d="m 96.511719 68 h 3.792969 v -33.550781 h -2.304688 l -11.855469 6.144531 l 1.4375 2.734375 l 10.175781 -4.847656 l -1.246093 -1.199219 z m 0 0" fill="#57e389"/>
    <path d="m 93.464844 88 c -7.210938 0 -11.78125 6.019531 -12.164063 16 h 4.023438 c 0.207031 -7.859375 3.179687 -12.59375 7.851562 -12.59375 c 4.632813 0 7.625 4.730469 7.933594 12.59375 h 4.054687 c -0.25 -9.933594 -4.664062 -16 -11.699218 -16 z m 0 0" fill="#57e389"/>
    <path d="m 16 32 h 38 c 2.210938 0 4 1.789062 4 4 v 64 c 0 2.210938 -1.789062 4 -4 4 h -38 c -2.210938 0 -4 -1.789062 -4 -4 v -64 c 0 -2.210938 1.789062 -4 4 -4 z m 0 0" fill="url(#f)"/>
    <path d="m 74.222656 32 h 38 c 2.210938 0 4 1.789062 4 4 v 64 c 0 2.210938 -1.789062 4 -4 4 h -38 c -2.207031 0 -4 -1.789062 -4 -4 v -64 c 0 -2.210938 1.792969 -4 4 -4 z m 0 0" fill="url(#g)"/>
    <g clip-path="url(#o)" mask="url(#k)">
        <g clip-path="url(#n)" mask="url(#l)">
            <path d="m 128 80.640625 v 47.359375 h -128 v -47.359375 z m 0 0" fill="url(#m)"/>
            <path d="m 13.308594 80.640625 l 47.355468 47.359375 h 21.214844 l -47.359375 -47.359375 z m 42.421875 0 l 47.363281 47.359375 h 21.214844 l -47.363282 -47.359375 z m 42.429687 0 l 29.839844 29.839844 v -21.210938 l -8.628906 -8.628906 z m -98.160156 7.90625 v 21.214844 l 18.238281 18.238281 h 21.214844 z m 0 0"/>
        </g>
    </g>
</svg>
