<?xml version="1.0" encoding="UTF-8"?>
<svg height="16px" viewBox="0 0 16 16" width="16px" xmlns="http://www.w3.org/2000/svg">
    <g fill="#241f31">
        <path d="m 2 2 c -1.109375 0 -2 0.890625 -2 2 v 8 c 0 1.109375 0.890625 2 2 2 h 12 c 1.109375 0 2 -0.890625 2 -2 v -8 c 0 -1.109375 -0.890625 -2 -2 -2 z m 1 2 h 3 c 0.554688 0 1 0.445312 1 1 v 6 c 0 0.554688 -0.445312 1 -1 1 h -3 c -0.554688 0 -1 -0.445312 -1 -1 v -6 c 0 -0.554688 0.445312 -1 1 -1 z m 7 0 h 3 c 0.554688 0 1 0.445312 1 1 v 6 c 0 0.554688 -0.445312 1 -1 1 h -3 c -0.554688 0 -1 -0.445312 -1 -1 v -6 c 0 -0.554688 0.445312 -1 1 -1 z m 0 0"/>
        <path d="m 4.5 5 c -0.832031 0 -1.5 0.890625 -1.5 2 v 2 c 0 1.109375 0.667969 2 1.5 2 s 1.5 -0.890625 1.5 -2 v -2 c 0 -1.109375 -0.667969 -2 -1.5 -2 z m 0 1 c 0.277344 0 0.5 0.890625 0.5 2 s -0.222656 2 -0.5 2 s -0.5 -0.890625 -0.5 -2 s 0.222656 -2 0.5 -2 z m 0 0"/>
        <path d="m 11.5 9 c -0.832031 0 -1.5 0.890625 -1.5 2 v 1 h 1 c 0 -1.109375 0.222656 -2 0.5 -2 s 0.5 0.890625 0.5 2 h 1 v -1 c 0 -1.109375 -0.667969 -2 -1.5 -2 z m 0 0"/>
        <path d="m 12 4 h 1 v 2 h -1 z m 0 0"/>
    </g>
</svg>
